<?xml version="1.0" encoding="UTF-8" standalone="no"?>
<svg
   fill="none"
   height="24"
   viewBox="0 0 24 24"
   width="24"
   version="1.1"
   id="svg1"
   sodipodi:docname="eraser.svg"
   inkscape:version="1.4.3 (0d15f75, 2025-12-25)"
   xmlns:inkscape="http://www.inkscape.org/namespaces/inkscape"
   xmlns:sodipodi="http://sodipodi.sourceforge.net/DTD/sodipodi-0.dtd"
   xmlns="http://www.w3.org/2000/svg"
   xmlns:svg="http://www.w3.org/2000/svg">
  <defs
     id="defs1" />
  <sodipodi:namedview
     id="namedview1"
     pagecolor="#ffffff"
     bordercolor="#000000"
     borderopacity="0.25"
     inkscape:showpageshadow="2"
     inkscape:pageopacity="0.0"
     inkscape:pagecheckerboard="0"
     inkscape:deskcolor="#d1d1d1"
     inkscape:zoom="33.625"
     inkscape:cx="12"
     inkscape:cy="12"
     inkscape:window-width="1920"
     inkscape:window-height="1009"
     inkscape:window-x="1912"
     inkscape:window-y="-8"
     inkscape:window-maximized="1"
     inkscape:current-layer="svg1" />
  <path
     d="m17.9995 13-7-6.99996m10 14.99996h-12.99995m2.93725-.9372 8.6686-8.6687c1.1881-1.188 1.7821-1.78203 2.0047-2.46701.1957-.60253.1957-1.25158 0-1.85411-.2226-.68498-.8166-1.27901-2.0047-2.46706l-.2117-.21177c-1.1881-1.18805-1.7821-1.78208-2.4671-2.00464-.6025-.19578-1.2516-.19578-1.8541 0-.685.22256-1.279.81659-2.4671 2.00464l-8.21174 8.21175c-1.18805 1.1881-1.78208 1.7821-2.00464 2.4671-.19578.6025-.19578 1.2516 0 1.8541.22256.685.81659 1.279 2.00464 2.467l.66863.6687c.3459.3459.51885.5188.72069.6425.17894.1097.37403.1905.5781.2395.23018.0552.47477.0552.96395.0552h1.34903c.48918 0 .73378 0 .96395-.0552.20407-.049.39919-.1298.57809-.2395.2019-.1237.3748-.2966.7207-.6425z"
     stroke="#171717"
     stroke-linecap="round"
     stroke-linejoin="round"
     stroke-width="2"
     id="path1"
     style="stroke:#ffffff;stroke-opacity:1" />
</svg>
