<?xml version="1.0" encoding="UTF-8" standalone="no"?>
<svg
   fill="none"
   height="24"
   viewBox="0 0 24 24"
   width="24"
   version="1.1"
   id="svg1"
   sodipodi:docname="PencilEdit.svg"
   inkscape:version="1.4.3 (0d15f75, 2025-12-25)"
   xmlns:inkscape="http://www.inkscape.org/namespaces/inkscape"
   xmlns:sodipodi="http://sodipodi.sourceforge.net/DTD/sodipodi-0.dtd"
   xmlns="http://www.w3.org/2000/svg"
   xmlns:svg="http://www.w3.org/2000/svg">
  <defs
     id="defs1" />
  <sodipodi:namedview
     id="namedview1"
     pagecolor="#ffffff"
     bordercolor="#000000"
     borderopacity="0.25"
     inkscape:showpageshadow="2"
     inkscape:pageopacity="0.0"
     inkscape:pagecheckerboard="0"
     inkscape:deskcolor="#d1d1d1"
     inkscape:zoom="33.625"
     inkscape:cx="12"
     inkscape:cy="12"
     inkscape:window-width="1920"
     inkscape:window-height="1009"
     inkscape:window-x="1912"
     inkscape:window-y="-8"
     inkscape:window-maximized="1"
     inkscape:current-layer="svg1" />
  <path
     d="M 16.990141,10.318048 13.681952,7.0098592 M 4.1708856,19.829089 6.969919,19.51812 c 0.3419757,-0.03804 0.5129595,-0.05707 0.6727863,-0.108757 0.141789,-0.0459 0.27673,-0.110742 0.401151,-0.192785 0.1402341,-0.09255 0.2618844,-0.214122 0.5051934,-0.457439 L 19.471282,7.8369063 c 0.913556,-0.9135315 0.913556,-2.3946571 0,-3.3081885 -0.913556,-0.9135314 -2.394632,-0.9135314 -3.308188,0 L 5.2408612,15.45095 c -0.2433007,0.243317 -0.3649593,0.364893 -0.4574315,0.505161 -0.082051,0.12447 -0.1469083,0.259362 -0.1928094,0.4012 -0.051732,0.159786 -0.070737,0.330736 -0.1087319,0.67272 z"
     stroke="#171717"
     stroke-linecap="round"
     stroke-linejoin="round"
     stroke-width="1.65409"
     id="path1"
     style="stroke:#ffffff;stroke-opacity:1" />
</svg>
